<?xml version="1.0" encoding="utf-8"?>
<!-- Generator: Adobe Illustrator 27.7.0, SVG Export Plug-In . SVG Version: 6.00 Build 0)  -->
<svg version="1.1" id="Layer_1" xmlns="http://www.w3.org/2000/svg" xmlns:xlink="http://www.w3.org/1999/xlink" x="0px" y="0px"
	 viewBox="0 0 353.2 125" style="enable-background:new 0 0 353.2 125;" xml:space="preserve">
<style type="text/css">
	.st0{opacity:0.9;fill:#FFFFFF;stroke:#FFFFFF;stroke-width:2.5242;stroke-miterlimit:10;}
	.st1{opacity:0.6;}
	.st2{fill:none;stroke:#D1D1D1;stroke-width:2.4144;stroke-miterlimit:10;}
	.st3{fill:#FFFFFF;}
	.st4{fill:#70BF44;stroke:#538434;stroke-width:2.5242;stroke-miterlimit:10;}
	.st5{fill:#F46767;stroke:#CE1B1B;stroke-width:2.5242;stroke-miterlimit:10;}
	.st6{fill:#6F93EF;stroke:#3867CE;stroke-width:2.5242;stroke-miterlimit:10;}
	.st7{fill:#EAA93F;stroke:#BC7D20;stroke-width:2.5242;stroke-miterlimit:10;}
	.st8{fill:#C9C9C9;stroke:#8C8C8C;stroke-width:2.5242;stroke-miterlimit:10;}
	.st9{opacity:0.8;fill:none;stroke:#FFFFFF;stroke-width:7;stroke-miterlimit:10;enable-background:new    ;}
	.st10{font-family:'HelveticaNeue';}
	.st11{font-size:60px;}
	.st12{fill:#454545;}
</style>
<path class="st0" d="M134.1,53.5c0-9.8-7.9-17.7-17.7-17.7c-2.8,0-5.4,0.7-7.7,1.8c-4.6-5.4-10.5-9.8-17.1-12.6
	c0.1-0.9,0.2-1.8,0.2-2.7c0-9.8-7.9-17.7-17.7-17.7s-17.7,7.9-17.7,17.7c0,0.9,0.1,1.8,0.2,2.7c-6.7,2.8-12.5,7.1-17.1,12.6
	c-2.3-1.1-4.9-1.8-7.7-1.8c-9.8,0-17.7,7.9-17.7,17.7c0,8.8,6.5,16.1,14.9,17.5c0.6,7,2.9,13.5,6.3,19.2c-3.2,3.2-5.2,7.6-5.2,12.5
	c0,9.8,7.9,17.7,17.7,17.7c6.8,0,12.8-3.9,15.7-9.6c3.4,0.8,6.9,1.3,10.6,1.3c3.5,0,6.9-0.4,10.1-1.2c3,5.6,8.9,9.5,15.7,9.5
	c9.8,0,17.7-7.9,17.7-17.7c0-4.7-1.9-9-4.9-12.2c3.6-5.8,5.8-12.4,6.5-19.5C127.6,69.6,134.1,62.3,134.1,53.5z"/>
<g class="st1">
	<path class="st2" d="M116.6,71.2c-9.8,0-17.7-7.9-17.7-17.7c0-7,4.1-13.1,10-15.9c-4.6-5.4-10.5-9.8-17.1-12.6
		c-1.3,8.5-8.6,15-17.5,15s-16.2-6.5-17.5-15c-6.7,2.8-12.5,7.1-17.1,12.6c5.9,2.9,10,8.9,10,15.9c0,9.8-7.9,17.7-17.7,17.7
		c-1,0-1.9-0.1-2.8-0.2c0.6,7,2.9,13.5,6.3,19.2C38.7,87,43.1,85,48,85c9.8,0,17.7,7.9,17.7,17.7c0,2.9-0.7,5.7-2,8.1
		c3.4,0.8,6.9,1.3,10.6,1.3c3.5,0,6.9-0.4,10.1-1.2c-1.3-2.5-2-5.3-2-8.2c0-9.8,7.9-17.7,17.7-17.7c5,0,9.6,2.1,12.8,5.5
		c3.6-5.8,5.8-12.4,6.5-19.5C118.5,71.1,117.5,71.2,116.6,71.2z"/>
	<path class="st3" d="M60.2,22.3c0-7.7,6.2-13.9,13.9-13.9S88,14.6,88,22.3c0,0.4,0,0.9-0.1,1.3c1.3,0.4,2.6,0.9,3.8,1.4
		c0.1-0.9,0.2-1.8,0.2-2.7c0-9.8-7.9-17.7-17.7-17.7s-17.7,7.9-17.7,17.7c0,0.9,0.1,1.8,0.2,2.7c1.1-0.5,2.3-0.9,3.4-1.3
		C60.2,23.3,60.2,22.8,60.2,22.3z"/>
	<path class="st3" d="M74.3,40c8.9,0,16.2-6.5,17.5-15c-1.3-0.5-2.5-1-3.8-1.4c-0.7,7.1-6.6,12.6-13.8,12.6
		c-7.2,0-13.1-5.5-13.8-12.5c-1.2,0.4-2.3,0.8-3.4,1.3C58.1,33.5,65.4,40,74.3,40z"/>
	<path class="st4" d="M74.1,8.4c-7.7,0-13.9,6.2-13.9,13.9c0,0.5,0,1,0.1,1.4c4.4-1.4,9.1-2.2,14-2.2c4.8,0,9.3,0.7,13.6,2.1
		c0-0.4,0.1-0.9,0.1-1.3C88,14.6,81.8,8.4,74.1,8.4z"/>
	<path class="st4" d="M60.3,23.7c0.7,7,6.6,12.5,13.8,12.5c7.2,0,13.2-5.5,13.8-12.6c-4.3-1.4-8.9-2.1-13.6-2.1
		C69.4,21.5,64.7,22.3,60.3,23.7z"/>
	<path class="st3" d="M116.5,39.6c7.7,0,13.9,6.2,13.9,13.9c0,6.6-4.6,12.1-10.8,13.5c0,1.3-0.1,2.6-0.2,3.9
		c8.4-1.3,14.9-8.6,14.9-17.5c0-9.8-7.9-17.7-17.7-17.7c-2.8,0-5.4,0.7-7.7,1.8c0.8,1,1.6,2,2.4,3C112.9,40,114.6,39.6,116.5,39.6z"
		/>
	<path class="st3" d="M98.9,53.5c0,9.8,7.9,17.7,17.7,17.7c1,0,1.9-0.1,2.8-0.2c0.1-1.3,0.2-2.6,0.2-3.9c-1,0.2-2,0.4-3.1,0.4
		c-7.7,0-13.9-6.2-13.9-13.9c0-5.8,3.6-10.8,8.7-12.9c-0.7-1-1.5-2.1-2.4-3C103,40.4,98.9,46.5,98.9,53.5z"/>
	<path class="st5" d="M130.4,53.5c0-7.7-6.2-13.9-13.9-13.9c-1.9,0-3.6,0.4-5.2,1c5.2,7.4,8.3,16.4,8.3,26.2c0,0.1,0,0.2,0,0.2
		C125.8,65.6,130.4,60.1,130.4,53.5z"/>
	<path class="st5" d="M111.3,40.6c-5.1,2.1-8.7,7-8.7,12.9c0,7.7,6.2,13.9,13.9,13.9c1.1,0,2.1-0.1,3.1-0.4c0-0.1,0-0.2,0-0.2
		C119.6,57,116.5,48,111.3,40.6z"/>
	<path class="st3" d="M18.1,53.5c0-7.7,6.2-13.9,13.9-13.9c1.9,0,3.7,0.4,5.3,1.1c0.8-1.1,1.5-2.1,2.4-3.1c-2.3-1.1-4.9-1.8-7.7-1.8
		c-9.8,0-17.7,7.9-17.7,17.7c0,8.8,6.5,16.1,14.9,17.5c-0.1-1.3-0.2-2.6-0.2-3.9C22.8,65.7,18.1,60.1,18.1,53.5z"/>
	<path class="st3" d="M49.7,53.5c0-7-4.1-13.1-10-15.9c-0.8,1-1.6,2-2.4,3.1c5,2.1,8.6,7,8.6,12.8c0,7.7-6.2,13.9-13.9,13.9
		c-1,0-2-0.1-3-0.3c0,1.3,0.1,2.6,0.2,3.9c0.9,0.1,1.8,0.2,2.8,0.2C41.8,71.2,49.7,63.3,49.7,53.5z"/>
	<path class="st6" d="M18.1,53.5c0,6.6,4.7,12.2,10.9,13.6c0-0.1,0-0.2,0-0.3c0-9.7,3.1-18.8,8.3-26.1c-1.6-0.7-3.4-1.1-5.3-1.1
		C24.3,39.6,18.1,45.8,18.1,53.5z"/>
	<path class="st6" d="M29,67.1c1,0.2,2,0.3,3,0.3c7.7,0,13.9-6.2,13.9-13.9c0-5.8-3.5-10.8-8.6-12.8C32.1,48,29,57.1,29,66.8
		C29,66.9,29,67,29,67.1z"/>
	<path class="st3" d="M114,102.7c0,7.7-6.2,13.9-13.9,13.9c-5,0-9.4-2.7-11.9-6.7c-1.2,0.4-2.5,0.7-3.8,1c3,5.6,8.9,9.5,15.7,9.5
		c9.8,0,17.7-7.9,17.7-17.7c0-4.7-1.9-9-4.9-12.2c-0.7,1.1-1.4,2.2-2.2,3.2C112.8,96.2,114,99.3,114,102.7z"/>
	<path class="st3" d="M100.1,85c-9.8,0-17.7,7.9-17.7,17.7c0,3,0.7,5.8,2,8.2c1.3-0.3,2.5-0.6,3.8-1c-1.3-2.1-2-4.6-2-7.2
		c0-7.7,6.2-13.9,13.9-13.9c4.3,0,8.1,1.9,10.6,4.9c0.8-1,1.5-2.1,2.2-3.2C109.7,87.1,105.1,85,100.1,85z"/>
	<path class="st7" d="M100.1,116.6c7.7,0,13.9-6.2,13.9-13.9c0-3.4-1.2-6.5-3.3-9c-5.6,7.5-13.4,13.2-22.5,16.2
		C90.7,113.9,95.1,116.6,100.1,116.6z"/>
	<path class="st7" d="M110.7,93.7c-2.5-3-6.4-4.9-10.6-4.9c-7.7,0-13.9,6.2-13.9,13.9c0,2.6,0.8,5.1,2,7.2
		C97.3,107,105.1,101.2,110.7,93.7z"/>
	<path class="st3" d="M48,116.6c-7.7,0-13.9-6.2-13.9-13.9c0-3.6,1.4-6.8,3.6-9.3c-0.8-1.1-1.5-2.1-2.2-3.3
		c-3.2,3.2-5.2,7.6-5.2,12.5c0,9.8,7.9,17.7,17.7,17.7c6.8,0,12.8-3.9,15.7-9.6c-1.3-0.3-2.5-0.7-3.8-1.1
		C57.5,113.9,53.1,116.6,48,116.6z"/>
	<path class="st3" d="M48,85c-4.9,0-9.3,2-12.5,5.2c0.7,1.1,1.4,2.2,2.2,3.3c2.5-2.8,6.2-4.6,10.3-4.6c7.7,0,13.9,6.2,13.9,13.9
		c0,2.6-0.7,5-1.9,7.1c1.2,0.4,2.5,0.8,3.8,1.1c1.3-2.4,2-5.2,2-8.1C65.7,92.9,57.8,85,48,85z"/>
	<path class="st8" d="M48,116.6c5.1,0,9.5-2.7,12-6.8c-9-3-16.8-8.8-22.3-16.3c-2.2,2.5-3.6,5.7-3.6,9.3
		C34.1,110.4,40.3,116.6,48,116.6z"/>
	<path class="st8" d="M59.9,109.8c1.2-2.1,1.9-4.5,1.9-7.1c0-7.7-6.2-13.9-13.9-13.9c-4.1,0-7.8,1.8-10.3,4.6
		C43.1,101,50.9,106.8,59.9,109.8z"/>
</g>
<text transform="matrix(1 0 0 1 50.5893 87.0631)" class="st9 st10 st11">Geomancy</text>
<text transform="matrix(1 0 0 1 50.5895 87.063)" class="st12 st10 st11">Geomancy</text>
</svg>
